<svg width="335" height="185" viewBox="0 0 335 185" fill="none" xmlns="http://www.w3.org/2000/svg">
<g clip-path="url(#clip0_4_41)">
<rect width="335" height="185" fill="#3B95C8"/>
<path d="M171.685 46C134.885 34 132.685 -3 136.185 -20H380.185C385.018 -1 395.485 44.2 398.685 73C402.685 109 380.185 86.5 337.185 95C294.185 103.5 313.685 55 273.685 41.5C233.685 28 218.185 52 171.685 46Z" fill="white" fill-opacity="0.37"/>
<path d="M119.388 62.0041C77.8703 50.0034 75.3883 13.0011 79.337 -4H354.615C360.068 15.0012 371.876 60.204 375.486 89.0058C379.999 125.008 354.615 102.507 306.103 111.007C257.591 119.508 279.59 71.0047 234.463 57.5039C189.335 44.003 171.848 68.0045 119.388 62.0041Z" fill="white" fill-opacity="0.22"/>
<path d="M94.0264 77.3842C49.8621 63.3143 47.2218 19.9323 51.4222 0H344.251C350.052 22.2773 362.613 75.2737 366.453 109.041C371.254 151.251 344.251 124.87 292.646 134.836C241.041 144.802 264.443 87.9366 216.439 72.108C168.434 56.2794 149.832 84.4191 94.0264 77.3842Z" fill="white" fill-opacity="0.1"/>
</g>
<defs>
<clipPath id="clip0_4_41">
<rect width="335" height="185" fill="white"/>
</clipPath>
</defs>
</svg>
