<svg width="335" height="185" viewBox="0 0 335 185" fill="none" xmlns="http://www.w3.org/2000/svg">
<g clip-path="url(#clip0_4_167)">
<rect width="335" height="185" fill="#30549A"/>
<path d="M94.0264 77.3842C49.8621 63.3143 47.2218 19.9323 51.4222 0H344.251C350.052 22.2773 362.613 75.2737 366.453 109.041C371.254 151.251 344.251 124.87 292.646 134.836C241.041 144.802 264.443 87.9366 216.439 72.108C168.434 56.2794 149.832 84.4191 94.0264 77.3842Z" fill="white" fill-opacity="0.1"/>
<path d="M119.388 62.0041C77.8703 50.0034 75.3883 13.0011 79.337 -4H354.615C360.068 15.0012 371.876 60.204 375.486 89.0058C379.999 125.008 354.615 102.507 306.103 111.007C257.591 119.508 279.59 71.0047 234.463 57.5039C189.335 44.003 171.848 68.0045 119.388 62.0041Z" fill="white" fill-opacity="0.13"/>
<path d="M171.685 46C134.885 34 132.685 -3 136.185 -20H380.185C385.018 -1 395.485 44.2 398.685 73C402.685 109 380.185 86.5 337.185 95C294.185 103.5 313.685 55 273.685 41.5C233.685 28 218.185 52 171.685 46Z" fill="white" fill-opacity="0.28"/>
<path d="M67 132.5L114 83" stroke="white" stroke-opacity="0.13" stroke-linecap="round"/>
<path d="M114 101.5L161 52" stroke="white" stroke-opacity="0.27" stroke-linecap="round"/>
<path d="M60 83L120 21" stroke="white" stroke-opacity="0.27" stroke-linecap="round"/>
<path d="M209 130L269 68" stroke="white" stroke-opacity="0.27" stroke-linecap="round"/>
<path d="M231 81L267 43" stroke="white" stroke-opacity="0.46" stroke-linecap="round"/>
<path d="M191 124L227 86" stroke="white" stroke-opacity="0.46" stroke-linecap="round"/>
<path d="M155 81L191 43" stroke="white" stroke-opacity="0.46" stroke-linecap="round"/>
<path d="M120 153L161 108" stroke="white" stroke-opacity="0.46" stroke-linecap="round"/>
<path d="M132 121L173 76" stroke="white" stroke-opacity="0.46" stroke-linecap="round"/>
<path d="M178 108L219 63" stroke="white" stroke-opacity="0.6" stroke-linecap="round"/>
<path d="M147 185L188 140" stroke="white" stroke-opacity="0.6" stroke-linecap="round"/>
<path d="M174 93L215 50" stroke="white" stroke-opacity="0.27" stroke-linecap="round"/>
<path d="M168 133L222 77" stroke="white" stroke-opacity="0.13" stroke-linecap="round"/>
<path d="M219 149L263 103" stroke="white" stroke-opacity="0.13" stroke-linecap="round"/>
<path d="M81 217L147 149" stroke="white" stroke-opacity="0.13" stroke-linecap="round"/>
</g>
<defs>
<clipPath id="clip0_4_167">
<rect width="335" height="185" fill="white"/>
</clipPath>
</defs>
</svg>
