<svg width="353" height="203" viewBox="0 0 353 203" fill="none" xmlns="http://www.w3.org/2000/svg">
<g filter="url(#filter0_d_4_41)">
<g clip-path="url(#clip0_4_41)">
<path d="M5 46C5 23.9086 22.9086 6 45 6H340V151C340 173.091 322.091 191 300 191H5V46Z" fill="#3B95C8"/>
<path d="M176.685 52C139.885 40 137.685 3 141.185 -14H385.185C390.018 5 400.485 50.2 403.685 79C407.685 115 385.185 92.5 342.185 101C299.185 109.5 318.685 61 278.685 47.5C238.685 34 223.185 58 176.685 52Z" fill="white" fill-opacity="0.37"/>
<path d="M124.388 68.0041C82.8703 56.0034 80.3883 19.0011 84.337 2H359.615C365.068 21.0012 376.876 66.204 380.486 95.0058C384.999 131.008 359.615 108.507 311.103 117.007C262.591 125.508 284.59 77.0047 239.463 63.5039C194.335 50.003 176.848 74.0045 124.388 68.0041Z" fill="white" fill-opacity="0.22"/>
<path d="M99.0264 83.3842C54.8621 69.3143 52.2218 25.9323 56.4222 6H349.251C355.052 28.2773 367.613 81.2737 371.453 115.041C376.254 157.251 349.251 130.87 297.646 140.836C246.041 150.802 269.443 93.9366 221.439 78.108C173.434 62.2794 154.832 90.4191 99.0264 83.3842Z" fill="white" fill-opacity="0.1"/>
</g>
</g>
<defs>
<filter id="filter0_d_4_41" x="0" y="0" width="353" height="203" filterUnits="userSpaceOnUse" color-interpolation-filters="sRGB">
<feFlood flood-opacity="0" result="BackgroundImageFix"/>
<feColorMatrix in="SourceAlpha" type="matrix" values="0 0 0 0 0 0 0 0 0 0 0 0 0 0 0 0 0 0 127 0" result="hardAlpha"/>
<feOffset dx="4" dy="3"/>
<feGaussianBlur stdDeviation="4.5"/>
<feComposite in2="hardAlpha" operator="out"/>
<feColorMatrix type="matrix" values="0 0 0 0 0 0 0 0 0 0 0 0 0 0 0 0 0 0 0.25 0"/>
<feBlend mode="normal" in2="BackgroundImageFix" result="effect1_dropShadow_4_41"/>
<feBlend mode="normal" in="SourceGraphic" in2="effect1_dropShadow_4_41" result="shape"/>
</filter>
<clipPath id="clip0_4_41">
<path d="M5 46C5 23.9086 22.9086 6 45 6H340V151C340 173.091 322.091 191 300 191H5V46Z" fill="white"/>
</clipPath>
</defs>
</svg>
