<svg width="335" height="185" viewBox="0 0 335 185" fill="none" xmlns="http://www.w3.org/2000/svg">
<g clip-path="url(#clip0_6_276)">
<rect width="335" height="185" fill="#59678C"/>
<path d="M106.215 62.4072C54.3945 45.2041 50.7822 -9.33972 55.4536 -34.4612L397.919 -37.7528C404.972 -9.79378 420.304 56.7332 425.203 99.1688C431.328 152.213 399.429 119.33 339.197 132.448C278.965 145.565 305.647 73.7662 249.313 54.3939C192.98 35.0215 171.565 70.6296 106.215 62.4072Z" fill="white" fill-opacity="0.37"/>
<path d="M33.0401 86.7179C-25.4015 69.5774 -29.4097 15.034 -24.1086 -10.0952L362.257 -13.8087C370.18 14.1437 387.394 80.6568 392.869 123.09C399.714 176.131 363.767 143.284 295.798 156.477C227.83 169.669 258.02 97.8323 194.49 78.5278C130.96 59.2234 106.756 94.8605 33.0401 86.7179Z" fill="white" fill-opacity="0.22"/>
<path d="M-2.33754 109.745C-64.5238 89.5885 -68.8445 25.6373 -63.2316 -3.81862L347.768 -7.76889C356.225 25.0109 374.607 103.009 380.476 152.763C387.812 214.956 349.538 176.409 277.249 191.805C204.96 207.201 237 123.011 169.399 100.312C101.798 77.6127 76.0879 119.369 -2.33754 109.745Z" fill="white" fill-opacity="0.1"/>
</g>
<defs>
<clipPath id="clip0_6_276">
<rect width="335" height="185" fill="white"/>
</clipPath>
</defs>
</svg>
