<svg width="335" height="185" viewBox="0 0 335 185" fill="none" xmlns="http://www.w3.org/2000/svg">
<rect width="335" height="185" fill="#6691FF"/>
<path d="M173.626 111.981L167.731 113.097L165.749 118.761L169.664 123.308L175.559 122.192L177.54 116.529L173.626 111.981Z" fill="white" fill-opacity="0.77"/>
<path d="M129.434 101.063L118.976 103.564L115.913 113.872L123.308 121.678L133.766 119.177L136.829 108.87L129.434 101.063Z" fill="white" fill-opacity="0.87"/>
<path d="M181.898 7.52414L175.436 6.03114L170.912 10.8812L172.85 17.2242L179.312 18.7172L183.836 13.8672L181.898 7.52414Z" fill="white" fill-opacity="0.25"/>
<path d="M116.424 12.6563L107.937 12.1794L103.281 19.2906L107.111 26.8787L115.598 27.3555L120.254 20.2443L116.424 12.6563Z" fill="white" fill-opacity="0.37"/>
<path d="M210.5 72L203.139 76.25V84.75L210.5 89L217.861 84.75V76.25L210.5 72Z" fill="white" fill-opacity="0.87"/>
<path d="M188.953 87.8318L182.956 88.0242L180.125 93.3139L183.29 98.4112L189.287 98.2187L192.118 92.929L188.953 87.8318Z" fill="white"/>
<path d="M154.626 20.9811L148.731 22.0972L146.749 27.7607L150.664 32.3081L156.559 31.192L158.54 25.5285L154.626 20.9811Z" fill="white" fill-opacity="0.76"/>
<path d="M168.499 58.1942L161.323 58.534L158.03 64.9185L161.912 70.963L169.088 70.6232L172.382 64.2388L168.499 58.1942Z" fill="white" fill-opacity="0.15"/>
<path d="M116.737 54.9801L110.244 55.2875L107.264 61.0642L110.777 66.5333L117.269 66.2258L120.249 60.4492L116.737 54.9801Z" fill="white" fill-opacity="0.15"/>
<path d="M116.737 83.9801L110.244 84.2875L107.264 90.0642L110.777 95.5333L117.269 95.2258L120.249 89.4492L116.737 83.9801Z" fill="white" fill-opacity="0.15"/>
<path d="M230.737 52.9801L224.244 53.2875L221.264 59.0642L224.777 64.5333L231.269 64.2258L234.249 58.4492L230.737 52.9801Z" fill="white" fill-opacity="0.15"/>
<path d="M149.737 156.98L143.244 157.288L140.264 163.064L143.777 168.533L150.269 168.226L153.249 162.449L149.737 156.98Z" fill="white" fill-opacity="0.15"/>
<path d="M135 59L130.67 61.5V66.5L135 69L139.33 66.5V61.5L135 59Z" fill="white"/>
<path d="M161.709 48.1532L158.993 48.031L157.407 50.3818L158.538 52.8547L161.254 52.9769L162.84 50.6261L161.709 48.1532Z" fill="white" fill-opacity="0.72"/>
<path d="M160.095 134.298L157.379 134.175L155.793 136.526L156.923 138.999L159.64 139.121L161.226 136.771L160.095 134.298Z" fill="white" fill-opacity="0.72"/>
<path d="M203.095 28.2976L200.379 28.1754L198.793 30.5262L199.923 32.9991L202.64 33.1213L204.226 30.7705L203.095 28.2976Z" fill="white" fill-opacity="0.72"/>
<path d="M191.319 156.373L186.351 156.15L183.45 160.449L185.518 164.973L190.486 165.196L193.387 160.896L191.319 156.373Z" fill="white" fill-opacity="0.72"/>
<path d="M197.095 114.298L194.379 114.175L192.793 116.526L193.923 118.999L196.64 119.121L198.226 116.771L197.095 114.298Z" fill="white" fill-opacity="0.72"/>
<path d="M187.5 43L180.139 47.25V55.75L187.5 60L194.861 55.75V47.25L187.5 43Z" fill="white" fill-opacity="0.51"/>
<path d="M187 133L181.804 136V142L187 145L192.196 142V136L187 133Z" fill="white"/>
<path d="M224.626 9.98111L218.731 11.0972L216.749 16.7607L220.664 21.3081L226.559 20.1921L228.54 14.5286L224.626 9.98111Z" fill="white" fill-opacity="0.77"/>
<path d="M217.626 92.9811L211.731 94.0972L209.749 99.7607L213.664 104.308L219.559 103.192L221.54 97.5286L217.626 92.9811Z" fill="white" fill-opacity="0.77"/>
<path d="M161.737 96.9801L155.244 97.2875L152.264 103.064L155.777 108.533L162.269 108.226L165.249 102.449L161.737 96.9801Z" fill="white" fill-opacity="0.15"/>
<path d="M134.419 37.1377L129.762 37.3582L127.624 41.5019L130.144 45.425L134.801 45.2044L136.939 41.0607L134.419 37.1377Z" fill="white" fill-opacity="0.15"/>
<path d="M128.737 135.98L122.244 136.288L119.264 142.064L122.777 147.533L129.269 147.226L132.249 141.449L128.737 135.98Z" fill="white" fill-opacity="0.15"/>
</svg>
