<svg width="353" height="203" viewBox="0 0 353 203" fill="none" xmlns="http://www.w3.org/2000/svg">
<g filter="url(#filter0_d_3_72)">
<path d="M5 46C5 23.9086 22.9086 6 45 6H340V151C340 173.091 322.091 191 300 191H5V46Z" fill="#6691FF"/>
<path d="M178.626 117.981L172.731 119.097L170.749 124.761L174.664 129.308L180.559 128.192L182.54 122.529L178.626 117.981Z" fill="white" fill-opacity="0.77"/>
<path d="M134.434 107.063L123.976 109.564L120.913 119.872L128.308 127.678L138.766 125.177L141.829 114.87L134.434 107.063Z" fill="white" fill-opacity="0.87"/>
<path d="M186.898 13.5241L180.436 12.0311L175.912 16.8812L177.85 23.2242L184.312 24.7172L188.836 19.8672L186.898 13.5241Z" fill="white" fill-opacity="0.25"/>
<path d="M121.424 18.6563L112.937 18.1794L108.281 25.2906L112.111 32.8787L120.598 33.3555L125.254 26.2443L121.424 18.6563Z" fill="white" fill-opacity="0.37"/>
<path d="M215.5 78L208.139 82.25V90.75L215.5 95L222.861 90.75V82.25L215.5 78Z" fill="white" fill-opacity="0.87"/>
<path d="M193.953 93.8318L187.956 94.0242L185.125 99.3139L188.29 104.411L194.287 104.219L197.118 98.929L193.953 93.8318Z" fill="white"/>
<path d="M159.626 26.9811L153.731 28.0972L151.749 33.7607L155.664 38.3081L161.559 37.192L163.54 31.5285L159.626 26.9811Z" fill="white" fill-opacity="0.76"/>
<path d="M173.499 64.1942L166.323 64.534L163.03 70.9185L166.912 76.963L174.088 76.6232L177.382 70.2388L173.499 64.1942Z" fill="white" fill-opacity="0.15"/>
<path d="M121.737 60.9801L115.244 61.2875L112.264 67.0642L115.777 72.5333L122.269 72.2258L125.249 66.4492L121.737 60.9801Z" fill="white" fill-opacity="0.15"/>
<path d="M121.737 89.9801L115.244 90.2875L112.264 96.0642L115.777 101.533L122.269 101.226L125.249 95.4492L121.737 89.9801Z" fill="white" fill-opacity="0.15"/>
<path d="M235.737 58.9801L229.244 59.2875L226.264 65.0642L229.777 70.5333L236.269 70.2258L239.249 64.4492L235.737 58.9801Z" fill="white" fill-opacity="0.15"/>
<path d="M154.737 162.98L148.244 163.288L145.264 169.064L148.777 174.533L155.269 174.226L158.249 168.449L154.737 162.98Z" fill="white" fill-opacity="0.15"/>
<path d="M140 65L135.67 67.5V72.5L140 75L144.33 72.5V67.5L140 65Z" fill="white"/>
<path d="M166.709 54.1532L163.993 54.031L162.407 56.3818L163.538 58.8547L166.254 58.9769L167.84 56.6261L166.709 54.1532Z" fill="white" fill-opacity="0.72"/>
<path d="M165.095 140.298L162.379 140.175L160.793 142.526L161.923 144.999L164.64 145.121L166.226 142.771L165.095 140.298Z" fill="white" fill-opacity="0.72"/>
<path d="M208.095 34.2976L205.379 34.1754L203.793 36.5262L204.923 38.9991L207.64 39.1213L209.226 36.7705L208.095 34.2976Z" fill="white" fill-opacity="0.72"/>
<path d="M196.319 162.373L191.351 162.15L188.45 166.449L190.518 170.973L195.486 171.196L198.387 166.896L196.319 162.373Z" fill="white" fill-opacity="0.72"/>
<path d="M202.095 120.298L199.379 120.175L197.793 122.526L198.923 124.999L201.64 125.121L203.226 122.771L202.095 120.298Z" fill="white" fill-opacity="0.72"/>
<path d="M192.5 49L185.139 53.25V61.75L192.5 66L199.861 61.75V53.25L192.5 49Z" fill="white" fill-opacity="0.51"/>
<path d="M192 139L186.804 142V148L192 151L197.196 148V142L192 139Z" fill="white"/>
<path d="M229.626 15.9811L223.731 17.0972L221.749 22.7607L225.664 27.3081L231.559 26.1921L233.54 20.5286L229.626 15.9811Z" fill="white" fill-opacity="0.77"/>
<path d="M222.626 98.9811L216.731 100.097L214.749 105.761L218.664 110.308L224.559 109.192L226.54 103.529L222.626 98.9811Z" fill="white" fill-opacity="0.77"/>
<path d="M166.737 102.98L160.244 103.288L157.264 109.064L160.777 114.533L167.269 114.226L170.249 108.449L166.737 102.98Z" fill="white" fill-opacity="0.15"/>
<path d="M139.419 43.1377L134.762 43.3582L132.624 47.5019L135.144 51.425L139.801 51.2044L141.939 47.0607L139.419 43.1377Z" fill="white" fill-opacity="0.15"/>
<path d="M133.737 141.98L127.244 142.288L124.264 148.064L127.777 153.533L134.269 153.226L137.249 147.449L133.737 141.98Z" fill="white" fill-opacity="0.15"/>
</g>
<defs>
<filter id="filter0_d_3_72" x="0" y="0" width="353" height="203" filterUnits="userSpaceOnUse" color-interpolation-filters="sRGB">
<feFlood flood-opacity="0" result="BackgroundImageFix"/>
<feColorMatrix in="SourceAlpha" type="matrix" values="0 0 0 0 0 0 0 0 0 0 0 0 0 0 0 0 0 0 127 0" result="hardAlpha"/>
<feOffset dx="4" dy="3"/>
<feGaussianBlur stdDeviation="4.5"/>
<feComposite in2="hardAlpha" operator="out"/>
<feColorMatrix type="matrix" values="0 0 0 0 0 0 0 0 0 0 0 0 0 0 0 0 0 0 0.25 0"/>
<feBlend mode="normal" in2="BackgroundImageFix" result="effect1_dropShadow_3_72"/>
<feBlend mode="normal" in="SourceGraphic" in2="effect1_dropShadow_3_72" result="shape"/>
</filter>
</defs>
</svg>
