<svg width="353" height="203" viewBox="0 0 353 203" fill="none" xmlns="http://www.w3.org/2000/svg">
<g filter="url(#filter0_d_4_219)">
<g clip-path="url(#clip0_4_219)">
<path d="M5 46C5 23.9086 22.9086 6 45 6H340V151C340 173.091 322.091 191 300 191H5V46Z" fill="#2F0B7C"/>
<path d="M99.0264 83.3842C54.8621 69.3143 52.2218 25.9323 56.4222 6H349.251C355.052 28.2773 367.613 81.2737 371.453 115.041C376.254 157.251 349.251 130.87 297.646 140.836C246.041 150.802 269.443 93.9366 221.439 78.108C173.434 62.2794 154.832 90.4191 99.0264 83.3842Z" fill="white" fill-opacity="0.1"/>
<path d="M124.388 68.0041C82.8703 56.0034 80.3883 19.0011 84.337 2H359.615C365.068 21.0012 376.876 66.204 380.486 95.0058C384.999 131.008 359.615 108.507 311.103 117.007C262.591 125.508 284.59 77.0047 239.463 63.5039C194.335 50.003 176.848 74.0045 124.388 68.0041Z" fill="white" fill-opacity="0.13"/>
<path d="M176.685 52C139.885 40 137.685 3 141.185 -14H385.185C390.018 5 400.485 50.2 403.685 79C407.685 115 385.185 92.5 342.185 101C299.185 109.5 318.685 61 278.685 47.5C238.685 34 223.185 58 176.685 52Z" fill="white" fill-opacity="0.28"/>
<path d="M72 138.5L119 89" stroke="white" stroke-opacity="0.13" stroke-linecap="round"/>
<path d="M119 107.5L166 58" stroke="white" stroke-opacity="0.27" stroke-linecap="round"/>
<path d="M65 89L125 27" stroke="white" stroke-opacity="0.27" stroke-linecap="round"/>
<path d="M214 136L274 74" stroke="white" stroke-opacity="0.27" stroke-linecap="round"/>
<path d="M236 87L272 49" stroke="white" stroke-opacity="0.46" stroke-linecap="round"/>
<path d="M196 130L232 92" stroke="white" stroke-opacity="0.46" stroke-linecap="round"/>
<path d="M160 87L196 49" stroke="white" stroke-opacity="0.46" stroke-linecap="round"/>
<path d="M125 159L166 114" stroke="white" stroke-opacity="0.46" stroke-linecap="round"/>
<path d="M137 127L178 82" stroke="white" stroke-opacity="0.46" stroke-linecap="round"/>
<path d="M183 114L224 69" stroke="white" stroke-opacity="0.6" stroke-linecap="round"/>
<path d="M152 191L193 146" stroke="white" stroke-opacity="0.6" stroke-linecap="round"/>
<path d="M179 99L220 56" stroke="white" stroke-opacity="0.27" stroke-linecap="round"/>
<path d="M173 139L227 83" stroke="white" stroke-opacity="0.13" stroke-linecap="round"/>
<path d="M224 155L268 109" stroke="white" stroke-opacity="0.13" stroke-linecap="round"/>
<path d="M86 223L152 155" stroke="white" stroke-opacity="0.13" stroke-linecap="round"/>
<path d="M212.379 76.5633C197.988 70.1815 189.546 74.3681 178.626 74.7644L184.239 83.3298L157.458 110.073L177.245 115.754L158.654 142.199L204.457 107.675L184.135 101.84L212.379 76.5633Z" fill="#FFB82F"/>
<path d="M114.445 63.818C105.459 60.143 100.594 55.0606 99.0865 54.365L102.354 64.4079L91.9041 78.7099L102.523 79.4067L96.1659 92.8244L115.315 73.3287L104.41 72.6131L114.445 63.818Z" fill="#FFC657"/>
<path d="M293.552 54.9142C291.213 51.0011 281.168 48.0087 280.056 47.38L284.24 54.6033L275.322 64.9139L283.423 66.1187L277.7 76.0093L293.619 62.2642L285.299 61.0268L293.552 54.9142Z" fill="#FFC657"/>
</g>
</g>
<defs>
<filter id="filter0_d_4_219" x="0" y="0" width="353" height="203" filterUnits="userSpaceOnUse" color-interpolation-filters="sRGB">
<feFlood flood-opacity="0" result="BackgroundImageFix"/>
<feColorMatrix in="SourceAlpha" type="matrix" values="0 0 0 0 0 0 0 0 0 0 0 0 0 0 0 0 0 0 127 0" result="hardAlpha"/>
<feOffset dx="4" dy="3"/>
<feGaussianBlur stdDeviation="4.5"/>
<feComposite in2="hardAlpha" operator="out"/>
<feColorMatrix type="matrix" values="0 0 0 0 0 0 0 0 0 0 0 0 0 0 0 0 0 0 0.25 0"/>
<feBlend mode="normal" in2="BackgroundImageFix" result="effect1_dropShadow_4_219"/>
<feBlend mode="normal" in="SourceGraphic" in2="effect1_dropShadow_4_219" result="shape"/>
</filter>
<clipPath id="clip0_4_219">
<path d="M5 46C5 23.9086 22.9086 6 45 6H340V151C340 173.091 322.091 191 300 191H5V46Z" fill="white"/>
</clipPath>
</defs>
</svg>
